<svg xmlns="http://www.w3.org/2000/svg" viewBox="0 0 900 520" width="900" height="520" role="img">
<defs><linearGradient id="cbg" x1="0" y1="0" x2="0" y2="1"><stop offset="0" stop-color="#ffffff"/><stop offset="1" stop-color="#f4f7fa"/></linearGradient><linearGradient id="barg" x1="0" y1="0" x2="0" y2="1"><stop offset="0" stop-color="#FFC800" stop-opacity=".95"/><stop offset="1" stop-color="#FFC800" stop-opacity=".45"/></linearGradient><linearGradient id="barp" x1="0" y1="0" x2="0" y2="1"><stop offset="0" stop-color="#35597A"/><stop offset="1" stop-color="#FFC800"/></linearGradient></defs>
<rect width="900" height="520" fill="url(#cbg)"/>
<rect x="0" y="0" width="900" height="6" fill="#FFC800" fill-opacity=".9"/>
<text x="62" y="46" font-family="system-ui,-apple-system,Segoe UI,sans-serif" font-size="25" font-weight="700" fill="#35597A">Days below freezing each month in Lufkin, TX</text>
<line x1="62" y1="444" x2="866" y2="444" stroke="#6b7f95" stroke-opacity=".22" stroke-width="1"/>
<text x="50" y="449" text-anchor="end" font-family="system-ui,-apple-system,Segoe UI,sans-serif" font-size="15" fill="#6b7f95">0</text>
<line x1="62" y1="351.5" x2="866" y2="351.5" stroke="#6b7f95" stroke-opacity=".22" stroke-width="1"/>
<text x="50" y="356.5" text-anchor="end" font-family="system-ui,-apple-system,Segoe UI,sans-serif" font-size="15" fill="#6b7f95">2</text>
<line x1="62" y1="259" x2="866" y2="259" stroke="#6b7f95" stroke-opacity=".22" stroke-width="1"/>
<text x="50" y="264" text-anchor="end" font-family="system-ui,-apple-system,Segoe UI,sans-serif" font-size="15" fill="#6b7f95">4</text>
<line x1="62" y1="166.5" x2="866" y2="166.5" stroke="#6b7f95" stroke-opacity=".22" stroke-width="1"/>
<text x="50" y="171.5" text-anchor="end" font-family="system-ui,-apple-system,Segoe UI,sans-serif" font-size="15" fill="#6b7f95">6</text>
<line x1="62" y1="74" x2="866" y2="74" stroke="#6b7f95" stroke-opacity=".22" stroke-width="1"/>
<text x="50" y="79" text-anchor="end" font-family="system-ui,-apple-system,Segoe UI,sans-serif" font-size="15" fill="#6b7f95">8</text>
<rect x="74.7" y="74" width="41.5" height="370" rx="6" fill="url(#barp)"/>
<text x="95.5" y="470" text-anchor="middle" font-family="system-ui,-apple-system,Segoe UI,sans-serif" font-size="15" fill="#6b7f95">Jan</text>
<rect x="141.7" y="212.8" width="41.5" height="231.3" rx="6" fill="url(#barg)"/>
<text x="162.5" y="470" text-anchor="middle" font-family="system-ui,-apple-system,Segoe UI,sans-serif" font-size="15" fill="#6b7f95">Feb</text>
<rect x="208.7" y="397.8" width="41.5" height="46.3" rx="6" fill="url(#barg)"/>
<text x="229.5" y="470" text-anchor="middle" font-family="system-ui,-apple-system,Segoe UI,sans-serif" font-size="15" fill="#6b7f95">Mar</text>
<rect x="275.7" y="444" width="41.5" height="1" rx="6" fill="url(#barg)"/>
<text x="296.5" y="470" text-anchor="middle" font-family="system-ui,-apple-system,Segoe UI,sans-serif" font-size="15" fill="#6b7f95">Apr</text>
<rect x="342.7" y="444" width="41.5" height="1" rx="6" fill="url(#barg)"/>
<text x="363.5" y="470" text-anchor="middle" font-family="system-ui,-apple-system,Segoe UI,sans-serif" font-size="15" fill="#6b7f95">May</text>
<rect x="409.7" y="444" width="41.5" height="1" rx="6" fill="url(#barg)"/>
<text x="430.5" y="470" text-anchor="middle" font-family="system-ui,-apple-system,Segoe UI,sans-serif" font-size="15" fill="#6b7f95">Jun</text>
<rect x="476.7" y="444" width="41.5" height="1" rx="6" fill="url(#barg)"/>
<text x="497.5" y="470" text-anchor="middle" font-family="system-ui,-apple-system,Segoe UI,sans-serif" font-size="15" fill="#6b7f95">Jul</text>
<rect x="543.7" y="444" width="41.5" height="1" rx="6" fill="url(#barg)"/>
<text x="564.5" y="470" text-anchor="middle" font-family="system-ui,-apple-system,Segoe UI,sans-serif" font-size="15" fill="#6b7f95">Aug</text>
<rect x="610.7" y="444" width="41.5" height="1" rx="6" fill="url(#barg)"/>
<text x="631.5" y="470" text-anchor="middle" font-family="system-ui,-apple-system,Segoe UI,sans-serif" font-size="15" fill="#6b7f95">Sep</text>
<rect x="677.7" y="444" width="41.5" height="1" rx="6" fill="url(#barg)"/>
<text x="698.5" y="470" text-anchor="middle" font-family="system-ui,-apple-system,Segoe UI,sans-serif" font-size="15" fill="#6b7f95">Oct</text>
<rect x="744.7" y="351.5" width="41.5" height="92.5" rx="6" fill="url(#barg)"/>
<text x="765.5" y="470" text-anchor="middle" font-family="system-ui,-apple-system,Segoe UI,sans-serif" font-size="15" fill="#6b7f95">Nov</text>
<rect x="811.7" y="166.5" width="41.5" height="277.5" rx="6" fill="url(#barg)"/>
<text x="832.5" y="470" text-anchor="middle" font-family="system-ui,-apple-system,Segoe UI,sans-serif" font-size="15" fill="#6b7f95">Dec</text>
<rect x="53.9" y="82" width="83.2" height="28" rx="14" fill="#35597A"/>
<text x="95.5" y="101" text-anchor="middle" font-family="system-ui,-apple-system,Segoe UI,sans-serif" font-size="16" font-weight="700" fill="#ffffff">8 days</text>
<line x1="62" y1="444" x2="866" y2="444" stroke="#35597A" stroke-opacity=".45" stroke-width="1.5"/>
<text x="62" y="500" font-family="system-ui,-apple-system,Segoe UI,sans-serif" font-size="14" fill="#6b7f95">Source: NOAA NCEI 1991-2020 Climate Normals, Lufkin, TX station</text>
</svg>