<svg xmlns="http://www.w3.org/2000/svg" viewBox="0 0 900 458" width="900" height="458" role="img">
<defs><linearGradient id="bgg" x1="0" y1="0" x2="0" y2="1"><stop offset="0" stop-color="#ffffff"/><stop offset="1" stop-color="#f4f7fa"/></linearGradient><radialGradient id="halo" cx="50%" cy="50%" r="50%"><stop offset="0" stop-color="#FFC800" stop-opacity=".20"/><stop offset="1" stop-color="#FFC800" stop-opacity="0"/></radialGradient><linearGradient id="dotg" x1="0" y1="0" x2="0" y2="1"><stop offset="0" stop-color="#FFC800"/><stop offset="1" stop-color="#35597A"/></linearGradient></defs>
<rect width="900" height="458" fill="url(#bgg)"/>
<circle cx="306" cy="236" r="196" fill="url(#halo)"/>
<circle cx="306" cy="236" r="104" fill="none" stroke="#6b7f95" stroke-opacity="0.2" stroke-width="1.4" stroke-dasharray="4 8"/>
<circle cx="306" cy="236" r="152" fill="none" stroke="#6b7f95" stroke-opacity="0.13" stroke-width="1.4" stroke-dasharray="4 8"/>
<circle cx="306" cy="236" r="200" fill="none" stroke="#6b7f95" stroke-opacity="0.1" stroke-width="1.4" stroke-dasharray="4 8"/>
<line x1="306" y1="236" x2="317.7" y2="138.9" stroke="#FFC800" stroke-opacity=".30" stroke-width="1.6"/>
<circle cx="317.7" cy="138.9" r="9" fill="#FFC800" fill-opacity=".18"/>
<circle cx="317.7" cy="138.9" r="5.5" fill="url(#dotg)"/>
<line x1="317.7" y1="138.9" x2="332.7" y2="135.4" stroke="#6b7f95" stroke-opacity=".38" stroke-width="1"/>
<rect x="332.7" y="120.4" width="97.2" height="30" rx="15" fill="#ffffff" fill-opacity=".92" stroke="#FFC800" stroke-opacity=".22" stroke-width="1"/>
<text x="347.7" y="140.9" font-family="system-ui,-apple-system,Segoe UI,sans-serif" font-size="17" font-weight="600" fill="#35597A">Diboll</text>
<line x1="306" y1="236" x2="378.6" y2="167" stroke="#FFC800" stroke-opacity=".30" stroke-width="1.6"/>
<circle cx="378.6" cy="167" r="9" fill="#FFC800" fill-opacity=".18"/>
<circle cx="378.6" cy="167" r="5.5" fill="url(#dotg)"/>
<line x1="378.6" y1="167" x2="393.6" y2="170.4" stroke="#6b7f95" stroke-opacity=".38" stroke-width="1"/>
<rect x="393.6" y="155.4" width="97.2" height="30" rx="15" fill="#ffffff" fill-opacity=".92" stroke="#FFC800" stroke-opacity=".22" stroke-width="1"/>
<text x="408.6" y="175.9" font-family="system-ui,-apple-system,Segoe UI,sans-serif" font-size="17" font-weight="600" fill="#35597A">Hudson</text>
<line x1="306" y1="236" x2="431" y2="234.6" stroke="#FFC800" stroke-opacity=".30" stroke-width="1.6"/>
<circle cx="431" cy="234.6" r="9" fill="#FFC800" fill-opacity=".18"/>
<circle cx="431" cy="234.6" r="5.5" fill="url(#dotg)"/>
<rect x="434" y="219.6" width="142" height="30" rx="15" fill="#ffffff" fill-opacity=".92" stroke="#FFC800" stroke-opacity=".22" stroke-width="1"/>
<text x="449" y="240.1" font-family="system-ui,-apple-system,Segoe UI,sans-serif" font-size="17" font-weight="600" fill="#35597A">Huntington</text>
<line x1="306" y1="236" x2="418.1" y2="309" stroke="#FFC800" stroke-opacity=".30" stroke-width="1.6"/>
<circle cx="418.1" cy="309" r="9" fill="#FFC800" fill-opacity=".18"/>
<circle cx="418.1" cy="309" r="5.5" fill="url(#dotg)"/>
<rect x="422.8" y="294" width="153.2" height="30" rx="15" fill="#ffffff" fill-opacity=".92" stroke="#FFC800" stroke-opacity=".22" stroke-width="1"/>
<text x="437.8" y="314.5" font-family="system-ui,-apple-system,Segoe UI,sans-serif" font-size="17" font-weight="600" fill="#35597A">Nacogdoches</text>
<line x1="306" y1="236" x2="319.2" y2="349.4" stroke="#FFC800" stroke-opacity=".30" stroke-width="1.6"/>
<circle cx="319.2" cy="349.4" r="9" fill="#FFC800" fill-opacity=".18"/>
<circle cx="319.2" cy="349.4" r="5.5" fill="url(#dotg)"/>
<rect x="334.2" y="334.4" width="108.4" height="30" rx="15" fill="#ffffff" fill-opacity=".92" stroke="#FFC800" stroke-opacity=".22" stroke-width="1"/>
<text x="349.2" y="354.9" font-family="system-ui,-apple-system,Segoe UI,sans-serif" font-size="17" font-weight="600" fill="#35597A">Zavalla</text>
<line x1="306" y1="236" x2="211.5" y2="299.9" stroke="#FFC800" stroke-opacity=".30" stroke-width="1.6"/>
<circle cx="211.5" cy="299.9" r="9" fill="#FFC800" fill-opacity=".18"/>
<circle cx="211.5" cy="299.9" r="5.5" fill="url(#dotg)"/>
<rect x="99.3" y="284.9" width="97.2" height="30" rx="15" fill="#ffffff" fill-opacity=".92" stroke="#FFC800" stroke-opacity=".22" stroke-width="1"/>
<text x="114.3" y="305.4" font-family="system-ui,-apple-system,Segoe UI,sans-serif" font-size="17" font-weight="600" fill="#35597A">Pollok</text>
<line x1="306" y1="236" x2="149.5" y2="237" stroke="#FFC800" stroke-opacity=".30" stroke-width="1.6"/>
<circle cx="149.5" cy="237" r="9" fill="#FFC800" fill-opacity=".18"/>
<circle cx="149.5" cy="237" r="5.5" fill="url(#dotg)"/>
<rect x="14.9" y="222" width="119.6" height="30" rx="15" fill="#ffffff" fill-opacity=".92" stroke="#FFC800" stroke-opacity=".22" stroke-width="1"/>
<text x="29.9" y="242.5" font-family="system-ui,-apple-system,Segoe UI,sans-serif" font-size="17" font-weight="600" fill="#35597A">Corrigan</text>
<line x1="306" y1="236" x2="169.8" y2="134.9" stroke="#FFC800" stroke-opacity=".30" stroke-width="1.6"/>
<circle cx="169.8" cy="134.9" r="9" fill="#FFC800" fill-opacity=".18"/>
<circle cx="169.8" cy="134.9" r="5.5" fill="url(#dotg)"/>
<rect x="14" y="119.9" width="142" height="30" rx="15" fill="#ffffff" fill-opacity=".92" stroke="#FFC800" stroke-opacity=".22" stroke-width="1"/>
<text x="29" y="140.4" font-family="system-ui,-apple-system,Segoe UI,sans-serif" font-size="17" font-weight="600" fill="#35597A">Livingston</text>
<circle cx="306" cy="236" r="30" fill="#ffffff" fill-opacity=".85"/>
<circle cx="306" cy="236" r="23" fill="none" stroke="#FFC800" stroke-opacity=".45" stroke-width="2"/>
<circle cx="306" cy="236" r="14" fill="url(#dotg)"/>
<circle cx="302" cy="231" r="4" fill="#ffffff" fill-opacity=".35"/>
<text x="306" y="294" text-anchor="middle" font-family="system-ui,-apple-system,Segoe UI,sans-serif" font-size="28" font-weight="700" fill="#35597A">Lufkin, TX</text>
<circle cx="33" cy="29" r="5.5" fill="url(#dotg)"/>
<text x="47" y="34" font-family="system-ui,-apple-system,Segoe UI,sans-serif" font-size="15" font-weight="700" letter-spacing="0.6" fill="#35597A" fill-opacity=".65">AROUND LUFKIN</text>
<text x="596" y="34" font-family="system-ui,-apple-system,Segoe UI,sans-serif" font-size="15" font-weight="700" letter-spacing="0.6" fill="#35597A" fill-opacity=".65">NEARBY TOWNS SERVED</text>
<circle cx="601" cy="82" r="4" fill="#FFC800" fill-opacity=".55"/>
<text x="614" y="87" font-family="system-ui,-apple-system,Segoe UI,sans-serif" font-size="17" font-weight="600" fill="#35597A">Diboll</text>
<text x="876" y="87" text-anchor="end" font-family="system-ui,-apple-system,Segoe UI,sans-serif" font-size="15" font-weight="600" fill="#6b7f95">10 mi</text>
<line x1="596" y1="96" x2="876" y2="96" stroke="#6b7f95" stroke-opacity=".16" stroke-width="1"/>
<circle cx="601" cy="113" r="4" fill="#FFC800" fill-opacity=".55"/>
<text x="614" y="118" font-family="system-ui,-apple-system,Segoe UI,sans-serif" font-size="17" font-weight="600" fill="#35597A">Hudson</text>
<text x="876" y="118" text-anchor="end" font-family="system-ui,-apple-system,Segoe UI,sans-serif" font-size="15" font-weight="600" fill="#6b7f95">5 mi</text>
<line x1="596" y1="127" x2="876" y2="127" stroke="#6b7f95" stroke-opacity=".16" stroke-width="1"/>
<circle cx="601" cy="144" r="4" fill="#FFC800" fill-opacity=".55"/>
<text x="614" y="149" font-family="system-ui,-apple-system,Segoe UI,sans-serif" font-size="17" font-weight="600" fill="#35597A">Huntington</text>
<text x="876" y="149" text-anchor="end" font-family="system-ui,-apple-system,Segoe UI,sans-serif" font-size="15" font-weight="600" fill="#6b7f95">10 mi</text>
<line x1="596" y1="158" x2="876" y2="158" stroke="#6b7f95" stroke-opacity=".16" stroke-width="1"/>
<circle cx="601" cy="175" r="4" fill="#FFC800" fill-opacity=".55"/>
<text x="614" y="180" font-family="system-ui,-apple-system,Segoe UI,sans-serif" font-size="17" font-weight="600" fill="#35597A">Nacogdoches</text>
<text x="876" y="180" text-anchor="end" font-family="system-ui,-apple-system,Segoe UI,sans-serif" font-size="15" font-weight="600" fill="#6b7f95">20 mi</text>
<line x1="596" y1="189" x2="876" y2="189" stroke="#6b7f95" stroke-opacity=".16" stroke-width="1"/>
<circle cx="601" cy="206" r="4" fill="#FFC800" fill-opacity=".55"/>
<text x="614" y="211" font-family="system-ui,-apple-system,Segoe UI,sans-serif" font-size="17" font-weight="600" fill="#35597A">Zavalla</text>
<text x="876" y="211" text-anchor="end" font-family="system-ui,-apple-system,Segoe UI,sans-serif" font-size="15" font-weight="600" fill="#6b7f95">20 mi</text>
<line x1="596" y1="220" x2="876" y2="220" stroke="#6b7f95" stroke-opacity=".16" stroke-width="1"/>
<circle cx="601" cy="237" r="4" fill="#FFC800" fill-opacity=".55"/>
<text x="614" y="242" font-family="system-ui,-apple-system,Segoe UI,sans-serif" font-size="17" font-weight="600" fill="#35597A">Pollok</text>
<text x="876" y="242" text-anchor="end" font-family="system-ui,-apple-system,Segoe UI,sans-serif" font-size="15" font-weight="600" fill="#6b7f95">10 mi</text>
<line x1="596" y1="251" x2="876" y2="251" stroke="#6b7f95" stroke-opacity=".16" stroke-width="1"/>
<circle cx="601" cy="268" r="4" fill="#FFC800" fill-opacity=".55"/>
<text x="614" y="273" font-family="system-ui,-apple-system,Segoe UI,sans-serif" font-size="17" font-weight="600" fill="#35597A">Corrigan</text>
<text x="876" y="273" text-anchor="end" font-family="system-ui,-apple-system,Segoe UI,sans-serif" font-size="15" font-weight="600" fill="#6b7f95">25 mi</text>
<line x1="596" y1="282" x2="876" y2="282" stroke="#6b7f95" stroke-opacity=".16" stroke-width="1"/>
<circle cx="601" cy="299" r="4" fill="#FFC800" fill-opacity=".55"/>
<text x="614" y="304" font-family="system-ui,-apple-system,Segoe UI,sans-serif" font-size="17" font-weight="600" fill="#35597A">Livingston</text>
<text x="876" y="304" text-anchor="end" font-family="system-ui,-apple-system,Segoe UI,sans-serif" font-size="15" font-weight="600" fill="#6b7f95">40 mi</text>
<text x="306" y="436" text-anchor="middle" font-family="system-ui,-apple-system,Segoe UI,sans-serif" font-size="16" fill="#6b7f95">Areas served &#8212; coverage diagram, not to scale</text>
<rect x="2" y="2" width="896" height="454" rx="16" fill="none" stroke="#FFC800" stroke-opacity=".55" stroke-width="4"/>
</svg>