<svg xmlns="http://www.w3.org/2000/svg" viewBox="0 0 900 458" width="900" height="458" role="img">
<defs><linearGradient id="bgg" x1="0" y1="0" x2="0" y2="1"><stop offset="0" stop-color="#ffffff"/><stop offset="1" stop-color="#f4f7fa"/></linearGradient><radialGradient id="halo" cx="50%" cy="50%" r="50%"><stop offset="0" stop-color="#FFB100" stop-opacity=".20"/><stop offset="1" stop-color="#FFB100" stop-opacity="0"/></radialGradient><linearGradient id="dotg" x1="0" y1="0" x2="0" y2="1"><stop offset="0" stop-color="#FFB100"/><stop offset="1" stop-color="#14532D"/></linearGradient></defs>
<rect width="900" height="458" fill="url(#bgg)"/>
<circle cx="306" cy="236" r="196" fill="url(#halo)"/>
<circle cx="306" cy="236" r="104" fill="none" stroke="#6b7f95" stroke-opacity="0.2" stroke-width="1.4" stroke-dasharray="4 8"/>
<circle cx="306" cy="236" r="152" fill="none" stroke="#6b7f95" stroke-opacity="0.13" stroke-width="1.4" stroke-dasharray="4 8"/>
<circle cx="306" cy="236" r="200" fill="none" stroke="#6b7f95" stroke-opacity="0.1" stroke-width="1.4" stroke-dasharray="4 8"/>
<line x1="306" y1="236" x2="303.5" y2="122.1" stroke="#FFB100" stroke-opacity=".30" stroke-width="1.6"/>
<circle cx="303.5" cy="122.1" r="9" fill="#FFB100" fill-opacity=".18"/>
<circle cx="303.5" cy="122.1" r="5.5" fill="url(#dotg)"/>
<line x1="303.5" y1="122.1" x2="288.5" y2="138.5" stroke="#6b7f95" stroke-opacity=".38" stroke-width="1"/>
<rect x="157.7" y="123.5" width="130.8" height="30" rx="15" fill="#ffffff" fill-opacity=".92" stroke="#FFB100" stroke-opacity=".22" stroke-width="1"/>
<text x="172.7" y="144" font-family="system-ui,-apple-system,Segoe UI,sans-serif" font-size="17" font-weight="600" fill="#14532D">Englewood</text>
<line x1="306" y1="236" x2="397.6" y2="147.3" stroke="#FFB100" stroke-opacity=".30" stroke-width="1.6"/>
<circle cx="397.6" cy="147.3" r="9" fill="#FFB100" fill-opacity=".18"/>
<circle cx="397.6" cy="147.3" r="5.5" fill="url(#dotg)"/>
<rect x="412.6" y="132.3" width="119.6" height="30" rx="15" fill="#ffffff" fill-opacity=".92" stroke="#FFB100" stroke-opacity=".22" stroke-width="1"/>
<text x="427.6" y="152.8" font-family="system-ui,-apple-system,Segoe UI,sans-serif" font-size="17" font-weight="600" fill="#14532D">Sheridan</text>
<line x1="306" y1="236" x2="476.3" y2="222.2" stroke="#FFB100" stroke-opacity=".30" stroke-width="1.6"/>
<circle cx="476.3" cy="222.2" r="9" fill="#FFB100" fill-opacity=".18"/>
<circle cx="476.3" cy="222.2" r="5.5" fill="url(#dotg)"/>
<rect x="434" y="207.2" width="142" height="30" rx="15" fill="#ffffff" fill-opacity=".92" stroke="#FFB100" stroke-opacity=".22" stroke-width="1"/>
<text x="449" y="227.7" font-family="system-ui,-apple-system,Segoe UI,sans-serif" font-size="17" font-weight="600" fill="#14532D">Centennial</text>
<line x1="306" y1="236" x2="418.1" y2="328.1" stroke="#FFB100" stroke-opacity=".30" stroke-width="1.6"/>
<circle cx="418.1" cy="328.1" r="9" fill="#FFB100" fill-opacity=".18"/>
<circle cx="418.1" cy="328.1" r="5.5" fill="url(#dotg)"/>
<rect x="378" y="313.1" width="198" height="30" rx="15" fill="#ffffff" fill-opacity=".92" stroke="#FFB100" stroke-opacity=".22" stroke-width="1"/>
<text x="393" y="333.6" font-family="system-ui,-apple-system,Segoe UI,sans-serif" font-size="17" font-weight="600" fill="#14532D">Highlands Ranch</text>
<line x1="306" y1="236" x2="291.7" y2="382.2" stroke="#FFB100" stroke-opacity=".30" stroke-width="1.6"/>
<circle cx="291.7" cy="382.2" r="9" fill="#FFB100" fill-opacity=".18"/>
<circle cx="291.7" cy="382.2" r="5.5" fill="url(#dotg)"/>
<rect x="145.9" y="367.2" width="130.8" height="30" rx="15" fill="#ffffff" fill-opacity=".92" stroke="#FFB100" stroke-opacity=".22" stroke-width="1"/>
<text x="160.9" y="387.7" font-family="system-ui,-apple-system,Segoe UI,sans-serif" font-size="17" font-weight="600" fill="#14532D">Lone Tree</text>
<line x1="306" y1="236" x2="204.8" y2="298.7" stroke="#FFB100" stroke-opacity=".30" stroke-width="1.6"/>
<circle cx="204.8" cy="298.7" r="9" fill="#FFB100" fill-opacity=".18"/>
<circle cx="204.8" cy="298.7" r="5.5" fill="url(#dotg)"/>
<line x1="204.8" y1="298.7" x2="223.2" y2="327" stroke="#6b7f95" stroke-opacity=".38" stroke-width="1"/>
<rect x="14" y="312" width="209.2" height="30" rx="15" fill="#ffffff" fill-opacity=".92" stroke="#FFB100" stroke-opacity=".22" stroke-width="1"/>
<text x="29" y="332.5" font-family="system-ui,-apple-system,Segoe UI,sans-serif" font-size="17" font-weight="600" fill="#14532D">Columbine Valley</text>
<line x1="306" y1="236" x2="168.4" y2="234.9" stroke="#FFB100" stroke-opacity=".30" stroke-width="1.6"/>
<circle cx="168.4" cy="234.9" r="9" fill="#FFB100" fill-opacity=".18"/>
<circle cx="168.4" cy="234.9" r="5.5" fill="url(#dotg)"/>
<rect x="45" y="219.9" width="108.4" height="30" rx="15" fill="#ffffff" fill-opacity=".92" stroke="#FFB100" stroke-opacity=".22" stroke-width="1"/>
<text x="60" y="240.4" font-family="system-ui,-apple-system,Segoe UI,sans-serif" font-size="17" font-weight="600" fill="#14532D">Bow Mar</text>
<line x1="306" y1="236" x2="191.2" y2="119.9" stroke="#FFB100" stroke-opacity=".30" stroke-width="1.6"/>
<circle cx="191.2" cy="119.9" r="9" fill="#FFB100" fill-opacity=".18"/>
<circle cx="191.2" cy="119.9" r="5.5" fill="url(#dotg)"/>
<line x1="191.2" y1="119.9" x2="176.2" y2="103.5" stroke="#6b7f95" stroke-opacity=".38" stroke-width="1"/>
<rect x="79" y="88.5" width="97.2" height="30" rx="15" fill="#ffffff" fill-opacity=".92" stroke="#FFB100" stroke-opacity=".22" stroke-width="1"/>
<text x="94" y="109" font-family="system-ui,-apple-system,Segoe UI,sans-serif" font-size="17" font-weight="600" fill="#14532D">Denver</text>
<circle cx="306" cy="236" r="30" fill="#ffffff" fill-opacity=".85"/>
<circle cx="306" cy="236" r="23" fill="none" stroke="#FFB100" stroke-opacity=".45" stroke-width="2"/>
<circle cx="306" cy="236" r="14" fill="url(#dotg)"/>
<circle cx="302" cy="231" r="4" fill="#ffffff" fill-opacity=".35"/>
<text x="306" y="294" text-anchor="middle" font-family="system-ui,-apple-system,Segoe UI,sans-serif" font-size="28" font-weight="700" fill="#14532D">Littleton, CO</text>
<circle cx="33" cy="29" r="5.5" fill="url(#dotg)"/>
<text x="47" y="34" font-family="system-ui,-apple-system,Segoe UI,sans-serif" font-size="15" font-weight="700" letter-spacing="0.6" fill="#14532D" fill-opacity=".65">AROUND LITTLETON</text>
<text x="596" y="34" font-family="system-ui,-apple-system,Segoe UI,sans-serif" font-size="15" font-weight="700" letter-spacing="0.6" fill="#14532D" fill-opacity=".65">NEARBY TOWNS SERVED</text>
<circle cx="601" cy="82" r="4" fill="#FFB100" fill-opacity=".55"/>
<text x="614" y="87" font-family="system-ui,-apple-system,Segoe UI,sans-serif" font-size="17" font-weight="600" fill="#14532D">Englewood</text>
<text x="876" y="87" text-anchor="end" font-family="system-ui,-apple-system,Segoe UI,sans-serif" font-size="15" font-weight="600" fill="#6b7f95">5 mi</text>
<line x1="596" y1="96" x2="876" y2="96" stroke="#6b7f95" stroke-opacity=".16" stroke-width="1"/>
<circle cx="601" cy="113" r="4" fill="#FFB100" fill-opacity=".55"/>
<text x="614" y="118" font-family="system-ui,-apple-system,Segoe UI,sans-serif" font-size="17" font-weight="600" fill="#14532D">Sheridan</text>
<text x="876" y="118" text-anchor="end" font-family="system-ui,-apple-system,Segoe UI,sans-serif" font-size="15" font-weight="600" fill="#6b7f95">5 mi</text>
<line x1="596" y1="127" x2="876" y2="127" stroke="#6b7f95" stroke-opacity=".16" stroke-width="1"/>
<circle cx="601" cy="144" r="4" fill="#FFB100" fill-opacity=".55"/>
<text x="614" y="149" font-family="system-ui,-apple-system,Segoe UI,sans-serif" font-size="17" font-weight="600" fill="#14532D">Centennial</text>
<text x="876" y="149" text-anchor="end" font-family="system-ui,-apple-system,Segoe UI,sans-serif" font-size="15" font-weight="600" fill="#6b7f95">8 mi</text>
<line x1="596" y1="158" x2="876" y2="158" stroke="#6b7f95" stroke-opacity=".16" stroke-width="1"/>
<circle cx="601" cy="175" r="4" fill="#FFB100" fill-opacity=".55"/>
<text x="614" y="180" font-family="system-ui,-apple-system,Segoe UI,sans-serif" font-size="17" font-weight="600" fill="#14532D">Highlands Ranch</text>
<text x="876" y="180" text-anchor="end" font-family="system-ui,-apple-system,Segoe UI,sans-serif" font-size="15" font-weight="600" fill="#6b7f95">7 mi</text>
<line x1="596" y1="189" x2="876" y2="189" stroke="#6b7f95" stroke-opacity=".16" stroke-width="1"/>
<circle cx="601" cy="206" r="4" fill="#FFB100" fill-opacity=".55"/>
<text x="614" y="211" font-family="system-ui,-apple-system,Segoe UI,sans-serif" font-size="17" font-weight="600" fill="#14532D">Lone Tree</text>
<text x="876" y="211" text-anchor="end" font-family="system-ui,-apple-system,Segoe UI,sans-serif" font-size="15" font-weight="600" fill="#6b7f95">10 mi</text>
<line x1="596" y1="220" x2="876" y2="220" stroke="#6b7f95" stroke-opacity=".16" stroke-width="1"/>
<circle cx="601" cy="237" r="4" fill="#FFB100" fill-opacity=".55"/>
<text x="614" y="242" font-family="system-ui,-apple-system,Segoe UI,sans-serif" font-size="17" font-weight="600" fill="#14532D">Columbine Valley</text>
<text x="876" y="242" text-anchor="end" font-family="system-ui,-apple-system,Segoe UI,sans-serif" font-size="15" font-weight="600" fill="#6b7f95">3 mi</text>
<line x1="596" y1="251" x2="876" y2="251" stroke="#6b7f95" stroke-opacity=".16" stroke-width="1"/>
<circle cx="601" cy="268" r="4" fill="#FFB100" fill-opacity=".55"/>
<text x="614" y="273" font-family="system-ui,-apple-system,Segoe UI,sans-serif" font-size="17" font-weight="600" fill="#14532D">Bow Mar</text>
<text x="876" y="273" text-anchor="end" font-family="system-ui,-apple-system,Segoe UI,sans-serif" font-size="15" font-weight="600" fill="#6b7f95">4 mi</text>
<line x1="596" y1="282" x2="876" y2="282" stroke="#6b7f95" stroke-opacity=".16" stroke-width="1"/>
<circle cx="601" cy="299" r="4" fill="#FFB100" fill-opacity=".55"/>
<text x="614" y="304" font-family="system-ui,-apple-system,Segoe UI,sans-serif" font-size="17" font-weight="600" fill="#14532D">Denver</text>
<text x="876" y="304" text-anchor="end" font-family="system-ui,-apple-system,Segoe UI,sans-serif" font-size="15" font-weight="600" fill="#6b7f95">10 mi</text>
<text x="306" y="436" text-anchor="middle" font-family="system-ui,-apple-system,Segoe UI,sans-serif" font-size="16" fill="#6b7f95">Areas served &#8212; coverage diagram, not to scale</text>
<rect x="2" y="2" width="896" height="454" rx="16" fill="none" stroke="#FFB100" stroke-opacity=".55" stroke-width="4"/>
</svg>